<mxfile host="app.diagrams.net" modified="2022-08-16T15:57:40.436Z" agent="5.0 (Windows NT 10.0; Win64; x64) AppleWebKit/537.36 (KHTML, like Gecko) Chrome/104.0.0.0 Safari/537.36" etag="ylnTy_mNK-q8D9mUBy1k" version="20.2.4" type="github">
  <diagram id="tfVPbFKDxSPrkaxi6CME" name="Page-1">
    <mxGraphModel dx="2031" dy="1134" grid="0" gridSize="10" guides="1" tooltips="1" connect="1" arrows="1" fold="1" page="1" pageScale="1" pageWidth="827" pageHeight="1169" math="0" shadow="0">
      <root>
        <mxCell id="0" />
        <mxCell id="1" parent="0" />
        <mxCell id="-1Ee7xU7LMOdshbjIilW-61" value="Diagramme&amp;nbsp; de séquence&amp;nbsp; ajouter departement" style="shape=umlFrame;whiteSpace=wrap;html=1;rounded=0;shadow=0;glass=0;sketch=0;fontSize=15;fillColor=none;width=417;height=26;" parent="1" vertex="1">
          <mxGeometry x="29" y="19" width="1764" height="1105" as="geometry" />
        </mxCell>
        <mxCell id="-1Ee7xU7LMOdshbjIilW-60" value="&lt;font style=&quot;font-size: 15px;&quot;&gt;alt: formulaire valide&lt;/font&gt;" style="shape=umlFrame;whiteSpace=wrap;html=1;width=162;height=22;" parent="1" vertex="1">
          <mxGeometry x="83" y="360" width="404" height="125" as="geometry" />
        </mxCell>
        <mxCell id="-1Ee7xU7LMOdshbjIilW-62" value=":Departement&lt;br&gt;Controler" style="shape=umlLifeline;perimeter=lifelinePerimeter;whiteSpace=wrap;html=1;container=1;collapsible=0;recursiveResize=0;outlineConnect=0;rounded=0;shadow=0;glass=0;sketch=0;fillColor=none;fontSize=15;fontColor=#CC0000;strokeColor=#CC0000;" parent="1" vertex="1">
          <mxGeometry x="656" y="65" width="165" height="1040" as="geometry" />
        </mxCell>
        <mxCell id="-1Ee7xU7LMOdshbjIilW-63" value="" style="html=1;points=[];perimeter=orthogonalPerimeter;rounded=0;shadow=0;glass=0;sketch=0;fontSize=15;fillColor=none;" parent="-1Ee7xU7LMOdshbjIilW-62" vertex="1">
          <mxGeometry x="77.5" y="482" width="10" height="296.5" as="geometry" />
        </mxCell>
        <mxCell id="-1Ee7xU7LMOdshbjIilW-64" style="edgeStyle=none;rounded=0;orthogonalLoop=1;jettySize=auto;html=1;fontSize=15;fontColor=#000000;strokeColor=#000000;endArrow=none;endFill=0;dashed=1;" parent="1" target="-1Ee7xU7LMOdshbjIilW-70" edge="1">
          <mxGeometry relative="1" as="geometry">
            <Array as="points">
              <mxPoint x="238" y="757" />
            </Array>
            <mxPoint x="118.96153846153857" y="757.0000000000002" as="sourcePoint" />
          </mxGeometry>
        </mxCell>
        <mxCell id="-1Ee7xU7LMOdshbjIilW-65" value="" style="shape=umlLifeline;participant=umlActor;perimeter=lifelinePerimeter;whiteSpace=wrap;html=1;container=1;collapsible=0;recursiveResize=0;verticalAlign=top;spacingTop=36;outlineConnect=0;fillColor=none;size=32;sketch=0;shadow=0;rounded=0;glass=0;" parent="1" vertex="1">
          <mxGeometry x="110" y="65" width="20" height="1040" as="geometry" />
        </mxCell>
        <mxCell id="-1Ee7xU7LMOdshbjIilW-66" value="&lt;span style=&quot;color: rgb(0, 0, 0); font-family: Helvetica; font-size: 15px; font-style: normal; font-variant-ligatures: normal; font-variant-caps: normal; font-weight: 400; letter-spacing: normal; orphans: 2; text-align: center; text-indent: 0px; text-transform: none; widows: 2; word-spacing: 0px; -webkit-text-stroke-width: 0px; background-color: rgb(248, 249, 250); text-decoration-thickness: initial; text-decoration-style: initial; text-decoration-color: initial; float: none; display: inline !important;&quot;&gt;Administrateur&lt;/span&gt;" style="text;whiteSpace=wrap;html=1;fontSize=15;" parent="1" vertex="1">
          <mxGeometry x="72" y="91" width="105" height="36" as="geometry" />
        </mxCell>
        <mxCell id="-1Ee7xU7LMOdshbjIilW-67" value=":Departement&lt;br&gt;Service" style="shape=umlLifeline;perimeter=lifelinePerimeter;whiteSpace=wrap;html=1;container=1;collapsible=0;recursiveResize=0;outlineConnect=0;rounded=0;shadow=0;glass=0;sketch=0;fillColor=none;fontSize=15;fontColor=#CC0000;strokeColor=#CC0000;" parent="1" vertex="1">
          <mxGeometry x="899" y="65" width="130" height="1040" as="geometry" />
        </mxCell>
        <mxCell id="-1Ee7xU7LMOdshbjIilW-68" value="" style="html=1;points=[];perimeter=orthogonalPerimeter;rounded=0;shadow=0;glass=0;sketch=0;fontSize=15;fillColor=none;" parent="-1Ee7xU7LMOdshbjIilW-67" vertex="1">
          <mxGeometry x="60" y="489" width="10" height="277" as="geometry" />
        </mxCell>
        <mxCell id="-1Ee7xU7LMOdshbjIilW-69" value="" style="shape=umlLifeline;participant=umlEntity;perimeter=lifelinePerimeter;whiteSpace=wrap;html=1;container=1;collapsible=0;recursiveResize=0;verticalAlign=top;spacingTop=36;outlineConnect=0;rounded=0;shadow=0;glass=0;sketch=0;fontSize=15;fillColor=none;fontColor=#CC6600;strokeColor=#CC0000;" parent="1" vertex="1">
          <mxGeometry x="1091" y="65" width="65" height="1040" as="geometry" />
        </mxCell>
        <mxCell id="-1Ee7xU7LMOdshbjIilW-70" value="" style="html=1;points=[];perimeter=orthogonalPerimeter;rounded=0;shadow=0;glass=0;sketch=0;fontSize=15;fillColor=none;" parent="-1Ee7xU7LMOdshbjIilW-69" vertex="1">
          <mxGeometry x="27.5" y="506" width="10" height="235" as="geometry" />
        </mxCell>
        <mxCell id="-1Ee7xU7LMOdshbjIilW-71" value="&lt;span style=&quot;font-family: Helvetica; font-size: 15px; font-style: normal; font-variant-ligatures: normal; font-variant-caps: normal; font-weight: 400; letter-spacing: normal; orphans: 2; text-indent: 0px; text-transform: none; widows: 2; word-spacing: 0px; -webkit-text-stroke-width: 0px; text-decoration-thickness: initial; text-decoration-style: initial; text-decoration-color: initial; float: none; display: inline !important;&quot;&gt;Base de donnée&lt;br&gt;&lt;span style=&quot;background-color: rgb(248, 249, 250);&quot;&gt;Departement&lt;/span&gt;&lt;br&gt;&lt;/span&gt;" style="text;whiteSpace=wrap;html=1;fontSize=15;align=center;fillColor=default;fontColor=#CC0000;labelBackgroundColor=default;" parent="-1Ee7xU7LMOdshbjIilW-69" vertex="1">
          <mxGeometry x="-21" y="47" width="119" height="48" as="geometry" />
        </mxCell>
        <mxCell id="-1Ee7xU7LMOdshbjIilW-72" value="" style="shape=umlLifeline;participant=umlBoundary;perimeter=lifelinePerimeter;whiteSpace=wrap;html=1;container=1;collapsible=0;recursiveResize=0;verticalAlign=top;spacingTop=36;outlineConnect=0;rounded=0;shadow=0;glass=0;sketch=0;fontSize=15;fillColor=none;fontColor=#CC6600;strokeColor=#CC0000;" parent="1" vertex="1">
          <mxGeometry x="343" y="65" width="65" height="1040" as="geometry" />
        </mxCell>
        <mxCell id="-1Ee7xU7LMOdshbjIilW-73" value="&lt;span style=&quot;font-family: Helvetica; font-size: 15px; font-style: normal; font-variant-ligatures: normal; font-variant-caps: normal; font-weight: 400; letter-spacing: normal; orphans: 2; text-indent: 0px; text-transform: none; widows: 2; word-spacing: 0px; -webkit-text-stroke-width: 0px; background-color: rgb(248, 249, 250); text-decoration-thickness: initial; text-decoration-style: initial; text-decoration-color: initial; float: none; display: inline !important;&quot;&gt;Interface IHM&lt;/span&gt;&lt;br style=&quot;font-family: Helvetica; font-size: 15px; font-style: normal; font-variant-ligatures: normal; font-variant-caps: normal; font-weight: 400; letter-spacing: normal; orphans: 2; text-indent: 0px; text-transform: none; widows: 2; word-spacing: 0px; -webkit-text-stroke-width: 0px; background-color: rgb(248, 249, 250); text-decoration-thickness: initial; text-decoration-style: initial; text-decoration-color: initial;&quot;&gt;&lt;span style=&quot;font-family: Helvetica; font-size: 15px; font-style: normal; font-variant-ligatures: normal; font-variant-caps: normal; font-weight: 400; letter-spacing: normal; orphans: 2; text-indent: 0px; text-transform: none; widows: 2; word-spacing: 0px; -webkit-text-stroke-width: 0px; background-color: rgb(248, 249, 250); text-decoration-thickness: initial; text-decoration-style: initial; text-decoration-color: initial; float: none; display: inline !important;&quot;&gt;AddDepartment&lt;/span&gt;" style="text;whiteSpace=wrap;html=1;fontSize=15;align=center;fillColor=default;fontColor=#CC0000;" parent="-1Ee7xU7LMOdshbjIilW-72" vertex="1">
          <mxGeometry x="-24" y="44" width="122" height="45" as="geometry" />
        </mxCell>
        <mxCell id="-1Ee7xU7LMOdshbjIilW-74" value="" style="html=1;points=[];perimeter=orthogonalPerimeter;rounded=0;shadow=0;glass=0;sketch=0;fontSize=15;fillColor=none;" parent="-1Ee7xU7LMOdshbjIilW-72" vertex="1">
          <mxGeometry x="27.5" y="143" width="10" height="837" as="geometry" />
        </mxCell>
        <mxCell id="-1Ee7xU7LMOdshbjIilW-75" value="valider&lt;br&gt;formulaire" style="edgeStyle=orthogonalEdgeStyle;html=1;align=left;spacingLeft=2;endArrow=block;rounded=0;fontSize=15;labelBackgroundColor=none;" parent="-1Ee7xU7LMOdshbjIilW-72" edge="1">
          <mxGeometry x="-0.0009" y="4" relative="1" as="geometry">
            <mxPoint x="37.5" y="360.03703703703695" as="sourcePoint" />
            <Array as="points">
              <mxPoint x="67" y="360" />
              <mxPoint x="67" y="388" />
            </Array>
            <mxPoint x="37.5" y="388.03703703703695" as="targetPoint" />
            <mxPoint as="offset" />
          </mxGeometry>
        </mxCell>
        <mxCell id="-1Ee7xU7LMOdshbjIilW-76" value="" style="edgeStyle=elbowEdgeStyle;fontSize=12;html=1;endArrow=blockThin;endFill=1;rounded=0;" parent="1" source="-1Ee7xU7LMOdshbjIilW-65" target="-1Ee7xU7LMOdshbjIilW-74" edge="1">
          <mxGeometry width="160" relative="1" as="geometry">
            <mxPoint x="628" y="319" as="sourcePoint" />
            <mxPoint x="788" y="319" as="targetPoint" />
            <Array as="points">
              <mxPoint x="190" y="237" />
              <mxPoint x="171" y="210" />
            </Array>
          </mxGeometry>
        </mxCell>
        <mxCell id="-1Ee7xU7LMOdshbjIilW-77" value="demander ajouter departement" style="edgeLabel;html=1;align=center;verticalAlign=middle;resizable=0;points=[];fontSize=15;" parent="-1Ee7xU7LMOdshbjIilW-76" vertex="1" connectable="0">
          <mxGeometry x="-0.3952" relative="1" as="geometry">
            <mxPoint x="51" y="-12" as="offset" />
          </mxGeometry>
        </mxCell>
        <mxCell id="-1Ee7xU7LMOdshbjIilW-78" value="" style="edgeStyle=elbowEdgeStyle;fontSize=12;html=1;endArrow=blockThin;endFill=1;rounded=0;" parent="1" source="-1Ee7xU7LMOdshbjIilW-63" target="-1Ee7xU7LMOdshbjIilW-68" edge="1">
          <mxGeometry width="160" relative="1" as="geometry">
            <mxPoint x="743.5000000000005" y="573" as="sourcePoint" />
            <mxPoint x="959" y="573" as="targetPoint" />
            <Array as="points">
              <mxPoint x="778" y="573" />
              <mxPoint x="753" y="364" />
              <mxPoint x="602" y="349" />
              <mxPoint x="527" y="378" />
            </Array>
          </mxGeometry>
        </mxCell>
        <mxCell id="-1Ee7xU7LMOdshbjIilW-79" value="createDepartment(&lt;span style=&quot;background-color: rgb(248, 249, 250);&quot;&gt;department&lt;/span&gt;)" style="edgeLabel;html=1;align=center;verticalAlign=middle;resizable=0;points=[];fontSize=15;" parent="-1Ee7xU7LMOdshbjIilW-78" vertex="1" connectable="0">
          <mxGeometry x="0.1239" relative="1" as="geometry">
            <mxPoint x="-14" y="-14" as="offset" />
          </mxGeometry>
        </mxCell>
        <mxCell id="-1Ee7xU7LMOdshbjIilW-80" value="" style="edgeStyle=elbowEdgeStyle;fontSize=12;html=1;endArrow=blockThin;endFill=1;rounded=0;" parent="1" source="-1Ee7xU7LMOdshbjIilW-68" target="-1Ee7xU7LMOdshbjIilW-70" edge="1">
          <mxGeometry width="160" relative="1" as="geometry">
            <mxPoint x="474" y="404" as="sourcePoint" />
            <mxPoint x="634" y="404" as="targetPoint" />
            <Array as="points">
              <mxPoint x="1060" y="580" />
              <mxPoint x="969" y="591" />
              <mxPoint x="766" y="367" />
            </Array>
          </mxGeometry>
        </mxCell>
        <mxCell id="-1Ee7xU7LMOdshbjIilW-81" value="save(&lt;span style=&quot;background-color: rgb(248, 249, 250);&quot;&gt;department&lt;/span&gt;)" style="edgeLabel;html=1;align=center;verticalAlign=middle;resizable=0;points=[];fontSize=15;" parent="-1Ee7xU7LMOdshbjIilW-80" vertex="1" connectable="0">
          <mxGeometry x="-0.3561" y="2" relative="1" as="geometry">
            <mxPoint x="23" y="-9" as="offset" />
          </mxGeometry>
        </mxCell>
        <mxCell id="-1Ee7xU7LMOdshbjIilW-82" value="&lt;font color=&quot;#009900&quot;&gt;departement&lt;/font&gt;" style="html=1;verticalAlign=bottom;endArrow=open;dashed=1;endSize=8;rounded=0;fontSize=15;strokeColor=#009900;" parent="1" source="-1Ee7xU7LMOdshbjIilW-70" target="-1Ee7xU7LMOdshbjIilW-68" edge="1">
          <mxGeometry relative="1" as="geometry">
            <mxPoint x="806" y="391" as="sourcePoint" />
            <mxPoint x="668" y="391" as="targetPoint" />
            <Array as="points">
              <mxPoint x="1025" y="619" />
            </Array>
          </mxGeometry>
        </mxCell>
        <mxCell id="-1Ee7xU7LMOdshbjIilW-83" value="&lt;span style=&quot;color: rgb(0, 153, 0);&quot;&gt;departement&lt;/span&gt;" style="html=1;verticalAlign=bottom;endArrow=open;dashed=1;endSize=8;rounded=0;fontSize=15;strokeColor=#009900;" parent="1" source="-1Ee7xU7LMOdshbjIilW-68" target="-1Ee7xU7LMOdshbjIilW-63" edge="1">
          <mxGeometry relative="1" as="geometry">
            <mxPoint x="658" y="396" as="sourcePoint" />
            <mxPoint x="477" y="396" as="targetPoint" />
            <Array as="points">
              <mxPoint x="895" y="638" />
            </Array>
          </mxGeometry>
        </mxCell>
        <mxCell id="-1Ee7xU7LMOdshbjIilW-84" value="&lt;span style=&quot;color: rgb(204, 102, 0);&quot;&gt;&amp;lt;&amp;lt;component&amp;gt;&amp;gt;&lt;/span&gt;&lt;br style=&quot;color: rgb(204, 102, 0);&quot;&gt;AddDepartement" style="shape=umlLifeline;perimeter=lifelinePerimeter;whiteSpace=wrap;html=1;container=1;collapsible=0;recursiveResize=0;outlineConnect=0;rounded=0;shadow=0;glass=0;sketch=0;fillColor=none;fontSize=15;fontColor=#CC0000;strokeColor=#CC0000;" parent="1" vertex="1">
          <mxGeometry x="449" y="65" width="160" height="1040" as="geometry" />
        </mxCell>
        <mxCell id="-1Ee7xU7LMOdshbjIilW-85" value="" style="html=1;points=[];perimeter=orthogonalPerimeter;" parent="-1Ee7xU7LMOdshbjIilW-84" vertex="1">
          <mxGeometry x="73" y="165" width="10" height="112" as="geometry" />
        </mxCell>
        <mxCell id="-1Ee7xU7LMOdshbjIilW-87" value="" style="fontSize=12;html=1;endArrow=blockThin;endFill=1;rounded=0;" parent="1" source="-1Ee7xU7LMOdshbjIilW-74" target="-1Ee7xU7LMOdshbjIilW-85" edge="1">
          <mxGeometry width="160" relative="1" as="geometry">
            <mxPoint x="294" y="256" as="sourcePoint" />
            <mxPoint x="599" y="366" as="targetPoint" />
            <Array as="points">
              <mxPoint x="382" y="238" />
            </Array>
          </mxGeometry>
        </mxCell>
        <mxCell id="-1Ee7xU7LMOdshbjIilW-88" value="formulaire()" style="edgeLabel;html=1;align=center;verticalAlign=middle;resizable=0;points=[];fontSize=15;" parent="-1Ee7xU7LMOdshbjIilW-87" vertex="1" connectable="0">
          <mxGeometry x="-0.0064" y="-3" relative="1" as="geometry">
            <mxPoint x="-3" y="-15" as="offset" />
          </mxGeometry>
        </mxCell>
        <mxCell id="-1Ee7xU7LMOdshbjIilW-89" value="&lt;font style=&quot;font-size: 15px;&quot;&gt;formulaire&lt;/font&gt;" style="html=1;verticalAlign=bottom;endArrow=open;dashed=1;endSize=8;rounded=0;" parent="1" source="-1Ee7xU7LMOdshbjIilW-85" target="-1Ee7xU7LMOdshbjIilW-74" edge="1">
          <mxGeometry relative="1" as="geometry">
            <mxPoint x="438" y="323" as="sourcePoint" />
            <mxPoint x="358" y="323" as="targetPoint" />
            <Array as="points">
              <mxPoint x="469" y="327" />
            </Array>
          </mxGeometry>
        </mxCell>
        <mxCell id="-1Ee7xU7LMOdshbjIilW-90" value="&lt;font style=&quot;font-size: 15px;&quot;&gt;formulaire&lt;/font&gt;" style="html=1;verticalAlign=bottom;endArrow=open;dashed=1;endSize=8;rounded=0;" parent="1" source="-1Ee7xU7LMOdshbjIilW-74" target="-1Ee7xU7LMOdshbjIilW-65" edge="1">
          <mxGeometry relative="1" as="geometry">
            <mxPoint x="300.5" y="298" as="sourcePoint" />
            <mxPoint x="119.66666666666674" y="298" as="targetPoint" />
            <Array as="points">
              <mxPoint x="339" y="341" />
            </Array>
          </mxGeometry>
        </mxCell>
        <mxCell id="-1Ee7xU7LMOdshbjIilW-91" value="" style="fontSize=12;html=1;endArrow=blockThin;endFill=1;rounded=0;" parent="1" edge="1">
          <mxGeometry width="160" relative="1" as="geometry">
            <mxPoint x="119.75925925925935" y="408" as="sourcePoint" />
            <mxPoint x="370.5" y="408" as="targetPoint" />
            <Array as="points">
              <mxPoint x="255" y="408" />
            </Array>
          </mxGeometry>
        </mxCell>
        <mxCell id="-1Ee7xU7LMOdshbjIilW-92" value="remplir formulaire" style="edgeLabel;html=1;align=center;verticalAlign=middle;resizable=0;points=[];fontSize=15;" parent="-1Ee7xU7LMOdshbjIilW-91" vertex="1" connectable="0">
          <mxGeometry x="0.1281" y="-4" relative="1" as="geometry">
            <mxPoint x="-3" y="-16" as="offset" />
          </mxGeometry>
        </mxCell>
        <mxCell id="-1Ee7xU7LMOdshbjIilW-93" value="" style="fontSize=12;html=1;endArrow=blockThin;endFill=1;rounded=0;" parent="1" source="-1Ee7xU7LMOdshbjIilW-74" target="FqqphstH8Fh91GJr292r-8" edge="1">
          <mxGeometry width="160" relative="1" as="geometry">
            <mxPoint x="380.50000000000045" y="542.0000000000002" as="sourcePoint" />
            <mxPoint x="524" y="542" as="targetPoint" />
            <Array as="points">
              <mxPoint x="487" y="559" />
            </Array>
          </mxGeometry>
        </mxCell>
        <mxCell id="-1Ee7xU7LMOdshbjIilW-94" value="save()" style="edgeLabel;html=1;align=center;verticalAlign=middle;resizable=0;points=[];labelBackgroundColor=none;fontSize=15;" parent="-1Ee7xU7LMOdshbjIilW-93" vertex="1" connectable="0">
          <mxGeometry x="-0.0806" y="1" relative="1" as="geometry">
            <mxPoint x="1" y="-10" as="offset" />
          </mxGeometry>
        </mxCell>
        <mxCell id="-1Ee7xU7LMOdshbjIilW-95" value="" style="fontSize=12;html=1;endArrow=blockThin;endFill=1;rounded=0;" parent="1" source="FqqphstH8Fh91GJr292r-8" target="-1Ee7xU7LMOdshbjIilW-63" edge="1">
          <mxGeometry width="160" relative="1" as="geometry">
            <mxPoint x="534" y="567" as="sourcePoint" />
            <mxPoint x="733.5000000000005" y="567" as="targetPoint" />
            <Array as="points">
              <mxPoint x="552" y="567" />
            </Array>
          </mxGeometry>
        </mxCell>
        <mxCell id="-1Ee7xU7LMOdshbjIilW-96" value="&lt;span style=&quot;font-size: 15px;&quot;&gt;create(department)&lt;/span&gt;" style="edgeLabel;html=1;align=center;verticalAlign=middle;resizable=0;points=[];labelBackgroundColor=none;fontSize=15;" parent="-1Ee7xU7LMOdshbjIilW-95" vertex="1" connectable="0">
          <mxGeometry x="0.25" relative="1" as="geometry">
            <mxPoint x="-23" y="-11" as="offset" />
          </mxGeometry>
        </mxCell>
        <mxCell id="-1Ee7xU7LMOdshbjIilW-97" value="&lt;span style=&quot;color: rgb(0, 153, 0);&quot;&gt;departement&lt;/span&gt;&lt;font color=&quot;#009900&quot;&gt;, statut 200&lt;/font&gt;" style="html=1;verticalAlign=bottom;endArrow=open;dashed=1;endSize=8;rounded=0;fontSize=15;strokeColor=#009900;" parent="1" source="-1Ee7xU7LMOdshbjIilW-63" edge="1">
          <mxGeometry relative="1" as="geometry">
            <mxPoint x="661" y="638" as="sourcePoint" />
            <mxPoint x="534" y="666" as="targetPoint" />
            <Array as="points">
              <mxPoint x="633" y="666" />
            </Array>
          </mxGeometry>
        </mxCell>
        <mxCell id="-1Ee7xU7LMOdshbjIilW-98" value="&lt;font color=&quot;#009900&quot;&gt;Rediriger vers liste&amp;nbsp;&lt;br&gt;&lt;/font&gt;&lt;span style=&quot;color: rgb(0, 153, 0);&quot;&gt;departements&lt;/span&gt;&lt;font color=&quot;#009900&quot;&gt;,&lt;br&gt;pop-up vert&lt;br&gt;&lt;/font&gt;" style="html=1;verticalAlign=bottom;endArrow=open;dashed=1;endSize=8;rounded=0;fontSize=15;strokeColor=#009900;" parent="1" edge="1">
          <mxGeometry x="-0.0136" y="-4" relative="1" as="geometry">
            <mxPoint x="524" y="689" as="sourcePoint" />
            <mxPoint x="380.50000000000045" y="689" as="targetPoint" />
            <Array as="points">
              <mxPoint x="459" y="689" />
            </Array>
            <mxPoint as="offset" />
          </mxGeometry>
        </mxCell>
        <mxCell id="-1Ee7xU7LMOdshbjIilW-99" value="&lt;font color=&quot;#000000&quot;&gt;liste departements&lt;/font&gt;" style="html=1;verticalAlign=bottom;endArrow=open;dashed=1;endSize=8;rounded=0;fontSize=15;fontColor=#009900;strokeColor=#000000;" parent="1" edge="1">
          <mxGeometry relative="1" as="geometry">
            <mxPoint x="370.50000000000045" y="716" as="sourcePoint" />
            <mxPoint x="118.96153846153857" y="716" as="targetPoint" />
            <Array as="points">
              <mxPoint x="274" y="716" />
            </Array>
          </mxGeometry>
        </mxCell>
        <mxCell id="-1Ee7xU7LMOdshbjIilW-100" value="" style="group" parent="1" vertex="1" connectable="0">
          <mxGeometry x="37" y="381" width="1755" height="745" as="geometry" />
        </mxCell>
        <mxCell id="FqqphstH8Fh91GJr292r-1" value="ALT" style="shape=umlFrame;whiteSpace=wrap;html=1;width=45;height=30;" parent="-1Ee7xU7LMOdshbjIilW-100" vertex="1">
          <mxGeometry y="113.5" width="1175" height="582" as="geometry" />
        </mxCell>
        <mxCell id="-1Ee7xU7LMOdshbjIilW-101" value="&lt;div style=&quot;text-align: left; font-size: 15px;&quot;&gt;&lt;span style=&quot;background-color: initial; font-size: 15px;&quot;&gt;[Departement&amp;nbsp;&lt;/span&gt;&lt;span style=&quot;background-color: initial; text-align: right; font-size: 15px;&quot;&gt;Valide]&lt;/span&gt;&lt;/div&gt;" style="text;html=1;strokeColor=none;fillColor=none;align=center;verticalAlign=middle;whiteSpace=wrap;rounded=0;fontSize=15;fontColor=#009900;" parent="-1Ee7xU7LMOdshbjIilW-100" vertex="1">
          <mxGeometry x="99.13576398552742" y="207.74" width="201.74929028666853" height="24.35" as="geometry" />
        </mxCell>
        <mxCell id="-1Ee7xU7LMOdshbjIilW-102" value="[Departement Invalide]" style="text;html=1;strokeColor=none;fillColor=none;align=center;verticalAlign=middle;whiteSpace=wrap;rounded=0;fontSize=15;fontColor=#FF5521;" parent="-1Ee7xU7LMOdshbjIilW-100" vertex="1">
          <mxGeometry x="132.920940510436" y="382.00179723502305" width="163.51181174763045" height="22.6036866359447" as="geometry" />
        </mxCell>
        <mxCell id="FqqphstH8Fh91GJr292r-8" value="" style="html=1;points=[];perimeter=orthogonalPerimeter;rounded=0;shadow=0;glass=0;sketch=0;fontSize=15;fillColor=none;" parent="-1Ee7xU7LMOdshbjIilW-100" vertex="1">
          <mxGeometry x="486.7269691065962" y="160" width="9.76899526857779" height="489" as="geometry" />
        </mxCell>
        <mxCell id="FqqphstH8Fh91GJr292r-2" value="&lt;div style=&quot;text-align: left;&quot;&gt;&lt;span style=&quot;color: rgb(0, 0, 0); text-align: center; background-color: rgb(255, 255, 255);&quot;&gt;&lt;font style=&quot;font-size: 15px;&quot;&gt;[cliquer sauvegarder]&lt;/font&gt;&lt;/span&gt;&lt;br&gt;&lt;/div&gt;" style="text;html=1;strokeColor=none;fillColor=none;align=center;verticalAlign=bottom;whiteSpace=wrap;rounded=0;fontSize=15;fontColor=#009900;" parent="-1Ee7xU7LMOdshbjIilW-100" vertex="1">
          <mxGeometry x="89.87475647091567" y="114" width="148.4887280823824" height="24.35" as="geometry" />
        </mxCell>
        <mxCell id="FqqphstH8Fh91GJr292r-7" value="&lt;div style=&quot;text-align: left;&quot;&gt;&lt;span style=&quot;color: rgb(0, 0, 0); text-align: center; background-color: rgb(255, 255, 255);&quot;&gt;&lt;font style=&quot;font-size: 15px;&quot;&gt;[cliquer annuler]&lt;/font&gt;&lt;/span&gt;&lt;br&gt;&lt;/div&gt;" style="text;html=1;strokeColor=none;fillColor=none;align=center;verticalAlign=bottom;whiteSpace=wrap;rounded=0;fontSize=15;fontColor=#009900;" parent="-1Ee7xU7LMOdshbjIilW-100" vertex="1">
          <mxGeometry x="89.87475647091567" y="523" width="148.4887280823824" height="24.35" as="geometry" />
        </mxCell>
        <mxCell id="-1Ee7xU7LMOdshbjIilW-103" value="ALT" style="shape=umlFrame;whiteSpace=wrap;html=1;width=45;height=30;" parent="-1Ee7xU7LMOdshbjIilW-100" vertex="1">
          <mxGeometry x="25.4" y="204" width="1093.6" height="299" as="geometry" />
        </mxCell>
        <mxCell id="-1Ee7xU7LMOdshbjIilW-104" value="&lt;font color=&quot;#cc0000&quot;&gt;departement&lt;/font&gt;" style="html=1;verticalAlign=bottom;endArrow=open;dashed=1;endSize=8;rounded=0;fontSize=15;fontColor=#000000;strokeColor=#CC0000;" parent="1" source="-1Ee7xU7LMOdshbjIilW-70" target="-1Ee7xU7LMOdshbjIilW-68" edge="1">
          <mxGeometry relative="1" as="geometry">
            <mxPoint x="680" y="796" as="sourcePoint" />
            <mxPoint x="600" y="796" as="targetPoint" />
            <Array as="points">
              <mxPoint x="1038" y="786" />
            </Array>
          </mxGeometry>
        </mxCell>
        <mxCell id="-1Ee7xU7LMOdshbjIilW-105" value="&lt;span style=&quot;color: rgb(204, 0, 0);&quot;&gt;departement&lt;/span&gt;" style="html=1;verticalAlign=bottom;endArrow=open;dashed=1;endSize=8;rounded=0;fontSize=15;fontColor=#000000;strokeColor=#CC0000;" parent="1" source="-1Ee7xU7LMOdshbjIilW-68" target="-1Ee7xU7LMOdshbjIilW-63" edge="1">
          <mxGeometry relative="1" as="geometry">
            <mxPoint x="915" y="826" as="sourcePoint" />
            <mxPoint x="744" y="826" as="targetPoint" />
            <Array as="points">
              <mxPoint x="879" y="814" />
            </Array>
          </mxGeometry>
        </mxCell>
        <mxCell id="-1Ee7xU7LMOdshbjIilW-106" value="&lt;span style=&quot;color: rgb(204, 0, 0);&quot;&gt;departement&lt;/span&gt;&lt;font color=&quot;#cc0000&quot;&gt;, statut 500&lt;/font&gt;" style="html=1;verticalAlign=bottom;endArrow=open;dashed=1;endSize=8;rounded=0;fontSize=15;fontColor=#000000;strokeColor=#CC0000;" parent="1" source="-1Ee7xU7LMOdshbjIilW-63" edge="1">
          <mxGeometry relative="1" as="geometry">
            <mxPoint x="651" y="823" as="sourcePoint" />
            <mxPoint x="534" y="831" as="targetPoint" />
            <Array as="points">
              <mxPoint x="619" y="831" />
            </Array>
          </mxGeometry>
        </mxCell>
        <mxCell id="-1Ee7xU7LMOdshbjIilW-107" value="&lt;font color=&quot;#cc0000&quot;&gt;Rediriger vers &lt;br&gt;liste&amp;nbsp;&lt;/font&gt;&lt;span style=&quot;color: rgb(204, 0, 0);&quot;&gt;departements&lt;/span&gt;&lt;font color=&quot;#cc0000&quot;&gt;,&lt;br&gt;pop-up rouge&lt;/font&gt;" style="html=1;verticalAlign=bottom;endArrow=open;dashed=1;endSize=8;rounded=0;fontSize=15;strokeColor=#CC0000;labelBackgroundColor=none;" parent="1" edge="1">
          <mxGeometry x="-0.0136" y="-4" relative="1" as="geometry">
            <mxPoint x="524" y="859" as="sourcePoint" />
            <mxPoint x="380.50000000000045" y="859" as="targetPoint" />
            <Array as="points">
              <mxPoint x="445" y="859" />
            </Array>
            <mxPoint as="offset" />
          </mxGeometry>
        </mxCell>
        <mxCell id="-1Ee7xU7LMOdshbjIilW-108" value="&lt;font color=&quot;#000000&quot;&gt;liste&amp;nbsp;&lt;/font&gt;&lt;span style=&quot;color: rgb(0, 0, 0);&quot;&gt;departements&lt;/span&gt;" style="html=1;verticalAlign=bottom;endArrow=open;dashed=1;endSize=8;rounded=0;fontSize=15;fontColor=#009900;strokeColor=#000000;" parent="1" edge="1">
          <mxGeometry relative="1" as="geometry">
            <mxPoint x="370.50000000000045" y="874" as="sourcePoint" />
            <mxPoint x="118.96153846153857" y="874" as="targetPoint" />
            <Array as="points">
              <mxPoint x="231" y="874" />
            </Array>
          </mxGeometry>
        </mxCell>
        <mxCell id="-1Ee7xU7LMOdshbjIilW-109" value=":Employee&lt;br&gt;Controler" style="shape=umlLifeline;perimeter=lifelinePerimeter;whiteSpace=wrap;html=1;container=1;collapsible=0;recursiveResize=0;outlineConnect=0;rounded=0;shadow=0;glass=0;sketch=0;fillColor=none;fontSize=15;strokeColor=#0000CC;fontColor=#0000CC;" parent="1" vertex="1">
          <mxGeometry x="1215" y="65" width="130" height="1040" as="geometry" />
        </mxCell>
        <mxCell id="-1Ee7xU7LMOdshbjIilW-110" value="" style="html=1;points=[];perimeter=orthogonalPerimeter;rounded=0;shadow=0;glass=0;sketch=0;fontSize=15;fillColor=none;" parent="-1Ee7xU7LMOdshbjIilW-109" vertex="1">
          <mxGeometry x="60" y="152" width="10" height="106" as="geometry" />
        </mxCell>
        <mxCell id="-1Ee7xU7LMOdshbjIilW-111" value="" style="shape=umlLifeline;participant=umlEntity;perimeter=lifelinePerimeter;whiteSpace=wrap;html=1;container=1;collapsible=0;recursiveResize=0;verticalAlign=top;spacingTop=36;outlineConnect=0;rounded=0;shadow=0;glass=0;sketch=0;fontSize=15;fillColor=none;strokeColor=#0000CC;" parent="1" vertex="1">
          <mxGeometry x="1689" y="60" width="65" height="1040" as="geometry" />
        </mxCell>
        <mxCell id="-1Ee7xU7LMOdshbjIilW-112" value="Base de donnée&lt;br&gt;Personnel" style="text;whiteSpace=wrap;html=1;fontSize=15;align=center;fillColor=default;fontColor=#0000CC;" parent="-1Ee7xU7LMOdshbjIilW-111" vertex="1">
          <mxGeometry x="-33" y="45" width="127" height="48" as="geometry" />
        </mxCell>
        <mxCell id="-1Ee7xU7LMOdshbjIilW-113" value="" style="html=1;points=[];perimeter=orthogonalPerimeter;rounded=0;shadow=0;glass=0;sketch=0;fontSize=15;fillColor=none;" parent="-1Ee7xU7LMOdshbjIilW-111" vertex="1">
          <mxGeometry x="27.5" y="178" width="10" height="61" as="geometry" />
        </mxCell>
        <mxCell id="-1Ee7xU7LMOdshbjIilW-114" value=":Employee&lt;br&gt;Service" style="shape=umlLifeline;perimeter=lifelinePerimeter;whiteSpace=wrap;html=1;container=1;collapsible=0;recursiveResize=0;outlineConnect=0;rounded=0;shadow=0;glass=0;sketch=0;fillColor=none;fontSize=15;strokeColor=#0000CC;fontColor=#0000CC;" parent="1" vertex="1">
          <mxGeometry x="1417" y="65" width="130" height="1040" as="geometry" />
        </mxCell>
        <mxCell id="-1Ee7xU7LMOdshbjIilW-115" value="" style="html=1;points=[];perimeter=orthogonalPerimeter;rounded=0;shadow=0;glass=0;sketch=0;fontSize=15;fillColor=none;" parent="-1Ee7xU7LMOdshbjIilW-114" vertex="1">
          <mxGeometry x="60" y="163" width="10" height="83" as="geometry" />
        </mxCell>
        <mxCell id="-1Ee7xU7LMOdshbjIilW-116" value="" style="edgeStyle=elbowEdgeStyle;fontSize=12;html=1;endArrow=blockThin;endFill=1;rounded=0;fontColor=#CC0000;" parent="1" source="-1Ee7xU7LMOdshbjIilW-85" target="-1Ee7xU7LMOdshbjIilW-110" edge="1">
          <mxGeometry width="160" relative="1" as="geometry">
            <mxPoint x="841" y="372" as="sourcePoint" />
            <mxPoint x="1001" y="372" as="targetPoint" />
            <Array as="points">
              <mxPoint x="1209" y="247" />
            </Array>
          </mxGeometry>
        </mxCell>
        <mxCell id="-1Ee7xU7LMOdshbjIilW-117" value="&lt;font style=&quot;font-size: 14px;&quot;&gt;ListEmployees()&lt;/font&gt;" style="edgeLabel;html=1;align=center;verticalAlign=middle;resizable=0;points=[];fontColor=#000000;" parent="-1Ee7xU7LMOdshbjIilW-116" vertex="1" connectable="0">
          <mxGeometry x="-0.1639" y="-2" relative="1" as="geometry">
            <mxPoint y="-14" as="offset" />
          </mxGeometry>
        </mxCell>
        <mxCell id="-1Ee7xU7LMOdshbjIilW-118" value="" style="edgeStyle=elbowEdgeStyle;fontSize=12;html=1;endArrow=blockThin;endFill=1;rounded=0;" parent="1" source="-1Ee7xU7LMOdshbjIilW-115" target="-1Ee7xU7LMOdshbjIilW-113" edge="1">
          <mxGeometry width="160" relative="1" as="geometry">
            <mxPoint x="1015" y="313" as="sourcePoint" />
            <mxPoint x="1225" y="280" as="targetPoint" />
            <Array as="points">
              <mxPoint x="1612" y="266" />
              <mxPoint x="1590" y="254" />
              <mxPoint x="1427" y="263" />
              <mxPoint x="917" y="318" />
            </Array>
          </mxGeometry>
        </mxCell>
        <mxCell id="-1Ee7xU7LMOdshbjIilW-119" value="findAll()" style="edgeLabel;html=1;align=center;verticalAlign=middle;resizable=0;points=[];fontSize=15;labelBackgroundColor=none;" parent="-1Ee7xU7LMOdshbjIilW-118" vertex="1" connectable="0">
          <mxGeometry x="-0.3561" y="2" relative="1" as="geometry">
            <mxPoint x="35" y="-8" as="offset" />
          </mxGeometry>
        </mxCell>
        <mxCell id="-1Ee7xU7LMOdshbjIilW-120" value="" style="edgeStyle=elbowEdgeStyle;fontSize=12;html=1;endArrow=blockThin;endFill=1;rounded=0;" parent="1" source="-1Ee7xU7LMOdshbjIilW-110" target="-1Ee7xU7LMOdshbjIilW-115" edge="1">
          <mxGeometry width="160" relative="1" as="geometry">
            <mxPoint x="1327" y="273" as="sourcePoint" />
            <mxPoint x="1571" y="273" as="targetPoint" />
            <Array as="points">
              <mxPoint x="1461" y="260" />
              <mxPoint x="1470" y="273" />
              <mxPoint x="1319" y="258" />
              <mxPoint x="1244" y="287" />
            </Array>
          </mxGeometry>
        </mxCell>
        <mxCell id="-1Ee7xU7LMOdshbjIilW-121" value="getAllEmployees()" style="edgeLabel;html=1;align=center;verticalAlign=middle;resizable=0;points=[];fontSize=15;labelBackgroundColor=none;" parent="-1Ee7xU7LMOdshbjIilW-120" vertex="1" connectable="0">
          <mxGeometry x="0.1239" relative="1" as="geometry">
            <mxPoint x="-14" y="-11" as="offset" />
          </mxGeometry>
        </mxCell>
        <mxCell id="-1Ee7xU7LMOdshbjIilW-122" value="employees" style="html=1;verticalAlign=bottom;endArrow=open;dashed=1;endSize=8;rounded=0;fontSize=15;" parent="1" source="-1Ee7xU7LMOdshbjIilW-113" target="-1Ee7xU7LMOdshbjIilW-115" edge="1">
          <mxGeometry relative="1" as="geometry">
            <mxPoint x="1704.5" y="459" as="sourcePoint" />
            <mxPoint x="1553" y="459" as="targetPoint" />
            <Array as="points">
              <mxPoint x="1668" y="291" />
            </Array>
          </mxGeometry>
        </mxCell>
        <mxCell id="-1Ee7xU7LMOdshbjIilW-125" value="employees" style="html=1;verticalAlign=bottom;endArrow=open;dashed=1;endSize=8;rounded=0;fontSize=15;" parent="1" source="-1Ee7xU7LMOdshbjIilW-115" target="-1Ee7xU7LMOdshbjIilW-110" edge="1">
          <mxGeometry relative="1" as="geometry">
            <mxPoint x="1535.5" y="296" as="sourcePoint" />
            <mxPoint x="1385" y="296" as="targetPoint" />
            <Array as="points">
              <mxPoint x="1451" y="303" />
            </Array>
          </mxGeometry>
        </mxCell>
        <mxCell id="-1Ee7xU7LMOdshbjIilW-126" value="employees" style="html=1;verticalAlign=bottom;endArrow=open;dashed=1;endSize=8;rounded=0;fontSize=15;" parent="1" source="-1Ee7xU7LMOdshbjIilW-110" target="-1Ee7xU7LMOdshbjIilW-85" edge="1">
          <mxGeometry x="0.179" y="-4" relative="1" as="geometry">
            <mxPoint x="931.5" y="319" as="sourcePoint" />
            <mxPoint x="781" y="319" as="targetPoint" />
            <Array as="points">
              <mxPoint x="883" y="319" />
            </Array>
            <mxPoint as="offset" />
          </mxGeometry>
        </mxCell>
        <mxCell id="FqqphstH8Fh91GJr292r-9" value="" style="edgeStyle=elbowEdgeStyle;fontSize=12;html=1;endArrow=blockThin;endFill=1;rounded=0;fontColor=#000000;" parent="1" source="-1Ee7xU7LMOdshbjIilW-65" target="-1Ee7xU7LMOdshbjIilW-74" edge="1">
          <mxGeometry width="160" relative="1" as="geometry">
            <mxPoint x="311" y="556" as="sourcePoint" />
            <mxPoint x="471" y="556" as="targetPoint" />
            <Array as="points">
              <mxPoint x="343" y="550" />
              <mxPoint x="225" y="535" />
            </Array>
          </mxGeometry>
        </mxCell>
        <mxCell id="FqqphstH8Fh91GJr292r-10" value="cliquer sauvegarder" style="edgeLabel;html=1;align=center;verticalAlign=middle;resizable=0;points=[];fontSize=15;fontColor=#000000;" parent="FqqphstH8Fh91GJr292r-9" vertex="1" connectable="0">
          <mxGeometry x="-0.0222" y="2" relative="1" as="geometry">
            <mxPoint y="-9" as="offset" />
          </mxGeometry>
        </mxCell>
        <mxCell id="FqqphstH8Fh91GJr292r-13" style="rounded=0;orthogonalLoop=1;jettySize=auto;html=1;fontSize=15;fontColor=#000000;strokeColor=#000000;endArrow=none;endFill=0;dashed=1;entryX=1.001;entryY=0.695;entryDx=0;entryDy=0;entryPerimeter=0;" parent="1" target="FqqphstH8Fh91GJr292r-1" edge="1">
          <mxGeometry relative="1" as="geometry">
            <mxPoint x="118.83333333333303" y="899" as="sourcePoint" />
            <mxPoint x="1200" y="899" as="targetPoint" />
          </mxGeometry>
        </mxCell>
        <mxCell id="FqqphstH8Fh91GJr292r-14" value="" style="edgeStyle=elbowEdgeStyle;fontSize=12;html=1;endArrow=blockThin;endFill=1;rounded=0;fontColor=#000000;" parent="1" source="-1Ee7xU7LMOdshbjIilW-65" target="-1Ee7xU7LMOdshbjIilW-74" edge="1">
          <mxGeometry width="160" relative="1" as="geometry">
            <mxPoint x="120.00352941176487" y="955.9999999999998" as="sourcePoint" />
            <mxPoint x="371.17999999999955" y="955.9999999999998" as="targetPoint" />
            <Array as="points">
              <mxPoint x="343.68" y="956" />
              <mxPoint x="225.68" y="941" />
            </Array>
          </mxGeometry>
        </mxCell>
        <mxCell id="FqqphstH8Fh91GJr292r-15" value="cliquer annuler" style="edgeLabel;html=1;align=center;verticalAlign=middle;resizable=0;points=[];fontSize=15;fontColor=#000000;" parent="FqqphstH8Fh91GJr292r-14" vertex="1" connectable="0">
          <mxGeometry x="-0.0222" y="2" relative="1" as="geometry">
            <mxPoint y="-9" as="offset" />
          </mxGeometry>
        </mxCell>
        <mxCell id="FqqphstH8Fh91GJr292r-16" value="" style="edgeStyle=elbowEdgeStyle;fontSize=12;html=1;endArrow=blockThin;endFill=1;rounded=0;fontColor=#000000;" parent="1" source="-1Ee7xU7LMOdshbjIilW-74" target="FqqphstH8Fh91GJr292r-8" edge="1">
          <mxGeometry width="160" relative="1" as="geometry">
            <mxPoint x="301" y="893" as="sourcePoint" />
            <mxPoint x="461" y="893" as="targetPoint" />
            <Array as="points">
              <mxPoint x="445" y="984" />
            </Array>
          </mxGeometry>
        </mxCell>
        <mxCell id="FqqphstH8Fh91GJr292r-17" value="etatPrecedent()" style="edgeLabel;html=1;align=center;verticalAlign=middle;resizable=0;points=[];fontSize=15;fontColor=#000000;" parent="FqqphstH8Fh91GJr292r-16" vertex="1" connectable="0">
          <mxGeometry x="-0.2905" y="-1" relative="1" as="geometry">
            <mxPoint x="17" y="-13" as="offset" />
          </mxGeometry>
        </mxCell>
        <mxCell id="FqqphstH8Fh91GJr292r-18" value="revenir en arriere&amp;nbsp;" style="html=1;verticalAlign=bottom;endArrow=open;dashed=1;endSize=8;rounded=0;fontSize=15;fontColor=#000000;" parent="1" source="FqqphstH8Fh91GJr292r-8" target="-1Ee7xU7LMOdshbjIilW-74" edge="1">
          <mxGeometry relative="1" as="geometry">
            <mxPoint x="373" y="1086" as="sourcePoint" />
            <mxPoint x="293" y="1086" as="targetPoint" />
            <Array as="points">
              <mxPoint x="468" y="1016" />
            </Array>
          </mxGeometry>
        </mxCell>
        <mxCell id="FqqphstH8Fh91GJr292r-19" value="list departements" style="html=1;verticalAlign=bottom;endArrow=open;dashed=1;endSize=8;rounded=0;fontSize=15;fontColor=#000000;" parent="1" source="-1Ee7xU7LMOdshbjIilW-74" target="-1Ee7xU7LMOdshbjIilW-65" edge="1">
          <mxGeometry relative="1" as="geometry">
            <mxPoint x="295" y="1011" as="sourcePoint" />
            <mxPoint x="215" y="1011" as="targetPoint" />
            <Array as="points">
              <mxPoint x="255" y="1035" />
            </Array>
          </mxGeometry>
        </mxCell>
      </root>
    </mxGraphModel>
  </diagram>
</mxfile>
